# xmcd
#
# Track frame offsets: 
#        150
#        28826
#        53484
#        67737
#        97212
#        118208
#        146342
#        178061
#        209445
#        240155
#
# Disc length: 3505 seconds
#
# Revision: 1
# Processed by: cddbd v1.5.1PL2 Copyright (c) Steve Scherf et al.
# Submitted via: ExactAudioCopy v0.95b2
#
DISCID=880daf0a
DTITLE=Ahmad Jamal - In Search of Momentum (1-10)
DYEAR=2003
DGENRE=Jazz
TTITLE0=In Search Of
TTITLE1=Should I
TTITLE2=Excerpts From I'll Take The 20
TTITLE3=Whisperings
TTITLE4=Island Fever
TTITLE5=I've Never Been In Love Before
TTITLE6=Where Are You
TTITLE7=Where Are You Now
TTITLE8=You Can See
TTITLE9=I'll Always Be With You
EXTD=FDM 36644-2\nBirdOlogy Records\n2003
EXTT0=
EXTT1=
EXTT2=
EXTT3=
EXTT4=
EXTT5=
EXTT6=
EXTT7=
EXTT8=
EXTT9=
PLAYORDER=
